<svg xmlns="http://www.w3.org/2000/svg" viewBox="0 0 1200 500" fill="none">
  <defs>
    <linearGradient id="bg" x1="0" y1="0" x2="1200" y2="500" gradientUnits="userSpaceOnUse">
      <stop offset="0%" stop-color="#0f0f1a"/>
      <stop offset="50%" stop-color="#1a1a2e"/>
      <stop offset="100%" stop-color="#16162a"/>
    </linearGradient>
    <linearGradient id="accent1" x1="0" y1="0" x2="1" y2="1">
      <stop offset="0%" stop-color="#8b5cf6"/>
      <stop offset="100%" stop-color="#6366f1"/>
    </linearGradient>
    <linearGradient id="accent2" x1="0" y1="0" x2="1" y2="1">
      <stop offset="0%" stop-color="#3b82f6"/>
      <stop offset="100%" stop-color="#06b6d4"/>
    </linearGradient>
    <linearGradient id="warmGrad" x1="0" y1="0" x2="1" y2="1">
      <stop offset="0%" stop-color="#f59e0b"/>
      <stop offset="100%" stop-color="#ef4444"/>
    </linearGradient>
    <filter id="glow2">
      <feGaussianBlur stdDeviation="15" result="blur"/>
      <feComposite in="SourceGraphic" in2="blur" operator="over"/>
    </filter>
  </defs>

  <!-- Background -->
  <rect width="1200" height="500" fill="url(#bg)"/>

  <!-- Background orbs -->
  <circle cx="200" cy="200" r="200" fill="#8b5cf6" opacity="0.04"/>
  <circle cx="1000" cy="350" r="180" fill="#3b82f6" opacity="0.04"/>
  <circle cx="600" cy="120" r="150" fill="#ec4899" opacity="0.03"/>

  <!-- Team desk scene - stylized modern office -->
  <!-- Conference table -->
  <rect x="250" y="300" width="700" height="20" rx="10" fill="#2a2a4a" opacity="0.6"/>
  <rect x="270" y="320" width="12" height="80" rx="4" fill="#2a2a4a" opacity="0.4"/>
  <rect x="918" y="320" width="12" height="80" rx="4" fill="#2a2a4a" opacity="0.4"/>

  <!-- Person 1 (left) -->
  <circle cx="320" cy="240" r="30" fill="#1e1e36"/>
  <circle cx="320" cy="240" r="28" fill="url(#accent1)" opacity="0.2"/>
  <circle cx="320" cy="228" r="12" fill="#c4b5fd"/>
  <rect x="308" y="244" width="24" height="28" rx="8" fill="#a78bfa"/>
  <!-- Laptop -->
  <rect x="290" y="278" width="60" height="6" rx="2" fill="#3a3a5c"/>
  <rect x="295" y="260" width="50" height="18" rx="3" fill="#1e1e36"/>
  <rect x="298" y="263" width="44" height="12" rx="2" fill="#8b5cf6" opacity="0.15"/>

  <!-- Person 2 (center-left) -->
  <circle cx="470" cy="230" r="32" fill="#1e1e36"/>
  <circle cx="470" cy="230" r="30" fill="url(#accent2)" opacity="0.2"/>
  <circle cx="470" cy="217" r="13" fill="#93c5fd"/>
  <rect x="457" y="234" width="26" height="30" rx="8" fill="#60a5fa"/>
  <!-- Laptop -->
  <rect x="440" y="272" width="60" height="6" rx="2" fill="#3a3a5c"/>
  <rect x="445" y="252" width="50" height="20" rx="3" fill="#1e1e36"/>
  <rect x="448" y="255" width="44" height="14" rx="2" fill="#3b82f6" opacity="0.15"/>
  <!-- Floating checkmark -->
  <circle cx="510" cy="215" r="10" fill="#10b981" opacity="0.2"/>
  <text x="505" y="220" font-family="Arial" font-size="12" fill="#10b981">✓</text>

  <!-- Person 3 (center) - standing, presenting -->
  <circle cx="600" cy="170" r="35" fill="#1e1e36"/>
  <circle cx="600" cy="170" r="33" fill="url(#warmGrad)" opacity="0.15"/>
  <circle cx="600" cy="155" r="15" fill="#fcd34d"/>
  <rect x="585" y="174" width="30" height="38" rx="10" fill="#f59e0b" opacity="0.7"/>
  <rect x="580" y="212" width="12" height="45" rx="4" fill="#f59e0b" opacity="0.5"/>
  <rect x="608" y="212" width="12" height="45" rx="4" fill="#f59e0b" opacity="0.5"/>
  <!-- Presenting gesture — right arm raised -->
  <rect x="615" y="180" width="30" height="8" rx="4" fill="#fcd34d" opacity="0.6" transform="rotate(-30 615 180)"/>

  <!-- Presentation board behind -->
  <rect x="660" y="110" width="180" height="120" rx="12" fill="#1c1c36" opacity="0.8"/>
  <rect x="660" y="110" width="180" height="120" rx="12" stroke="#2a2a4a" stroke-width="1" fill="none"/>
  <!-- Mini chart on board -->
  <polyline points="680,200 700,185 720,190 740,170 760,165 780,155 800,140 820,130" stroke="url(#accent1)" stroke-width="2.5" fill="none" stroke-linecap="round"/>
  <polygon points="680,200 700,185 720,190 740,170 760,165 780,155 800,140 820,130 820,210 680,210" fill="url(#accent1)" opacity="0.06"/>
  <text x="680" y="130" font-family="Arial,sans-serif" font-size="10" fill="#6b7280">Growth Q4</text>
  <!-- Arrow up icon -->
  <text x="808" y="130" font-family="Arial" font-size="12" fill="#10b981">↑</text>

  <!-- Person 4 (center-right) -->
  <circle cx="750" cy="240" r="30" fill="#1e1e36"/>
  <circle cx="750" cy="240" r="28" fill="#ec4899" opacity="0.15"/>
  <circle cx="750" cy="228" r="12" fill="#fda4af"/>
  <rect x="738" y="244" width="24" height="28" rx="8" fill="#ec4899" opacity="0.6"/>
  <!-- Laptop -->
  <rect x="720" y="278" width="60" height="6" rx="2" fill="#3a3a5c"/>
  <rect x="725" y="260" width="50" height="18" rx="3" fill="#1e1e36"/>
  <rect x="728" y="263" width="44" height="12" rx="2" fill="#ec4899" opacity="0.15"/>

  <!-- Person 5 (right) -->
  <circle cx="880" cy="245" r="28" fill="#1e1e36"/>
  <circle cx="880" cy="245" r="26" fill="#10b981" opacity="0.15"/>
  <circle cx="880" cy="234" r="11" fill="#86efac"/>
  <rect x="869" y="249" width="22" height="26" rx="7" fill="#10b981" opacity="0.6"/>
  <!-- Phone/tablet -->
  <rect x="860" y="280" width="25" height="15" rx="3" fill="#1e1e36"/>
  <rect x="862" y="282" width="21" height="11" rx="2" fill="#10b981" opacity="0.15"/>

  <!-- Floating UI elements -->
  <!-- Chat bubble top-left -->
  <rect x="100" y="100" width="120" height="50" rx="12" fill="#1c1c36" opacity="0.8"/>
  <rect x="100" y="100" width="120" height="50" rx="12" stroke="#2a2a4a" stroke-width="0.5" fill="none"/>
  <rect x="115" y="115" width="60" height="6" rx="3" fill="#8b5cf6" opacity="0.4"/>
  <rect x="115" y="127" width="80" height="6" rx="3" fill="#3a3a5c" opacity="0.4"/>
  <text x="188" y="140" font-family="Arial" font-size="10" fill="#10b981">💬</text>

  <!-- Stats bubble top-right -->
  <rect x="980" y="80" width="140" height="60" rx="14" fill="#1c1c36" opacity="0.8"/>
  <rect x="980" y="80" width="140" height="60" rx="14" stroke="#2a2a4a" stroke-width="0.5" fill="none"/>
  <text x="1000" y="105" font-family="Arial,sans-serif" font-size="10" fill="#6b7280">Team Velocity</text>
  <text x="1000" y="126" font-family="Arial,sans-serif" font-size="18" font-weight="bold" fill="#ffffff">97%</text>
  <text x="1060" y="126" font-family="Arial,sans-serif" font-size="10" fill="#10b981">▲ 12%</text>

  <!-- Floating icon - rocket -->
  <circle cx="160" cy="300" r="20" fill="url(#accent1)" opacity="0.1"/>
  <text x="152" y="306" font-family="Arial" font-size="16" fill="#8b5cf6">🚀</text>

  <!-- Floating icon - target -->
  <circle cx="1050" cy="260" r="20" fill="#ec4899" opacity="0.1"/>
  <text x="1042" y="266" font-family="Arial" font-size="16" fill="#ec4899">🎯</text>

  <!-- Floating sparkles -->
  <circle cx="380" cy="150" r="3" fill="#8b5cf6" opacity="0.6"/>
  <circle cx="850" cy="120" r="2" fill="#06b6d4" opacity="0.5"/>
  <circle cx="500" cy="130" r="2.5" fill="#f59e0b" opacity="0.5"/>
  <circle cx="950" cy="200" r="3" fill="#ec4899" opacity="0.4"/>
  <circle cx="150" cy="200" r="2" fill="#10b981" opacity="0.5"/>

  <!-- Bottom tagline bar -->
  <rect x="350" y="420" width="500" height="44" rx="22" fill="#1c1c36" opacity="0.6"/>
  <rect x="350" y="420" width="500" height="44" rx="22" stroke="#2a2a4a" stroke-width="0.5" fill="none"/>
  <text x="600" y="447" font-family="Arial,sans-serif" font-size="14" fill="#d1d5db" text-anchor="middle">Built by Marketers · Powered by Innovation · Trusted by 500+ Agencies</text>
</svg>
