<svg xmlns="http://www.w3.org/2000/svg" viewBox="0 0 1200 630" width="1200" height="630">
  <defs>
    <linearGradient id="bg" x1="0" y1="0" x2="1" y2="1">
      <stop offset="0%" stop-color="#0f0a1e"/>
      <stop offset="50%" stop-color="#1a1035"/>
      <stop offset="100%" stop-color="#0d0720"/>
    </linearGradient>
    <linearGradient id="accent" x1="0" y1="0" x2="1" y2="1">
      <stop offset="0%" stop-color="#6366f1"/>
      <stop offset="100%" stop-color="#a855f7"/>
    </linearGradient>
    <radialGradient id="glow1" cx="30%" cy="40%" r="40%">
      <stop offset="0%" stop-color="#6366f1" stop-opacity="0.3"/>
      <stop offset="100%" stop-color="#6366f1" stop-opacity="0"/>
    </radialGradient>
    <radialGradient id="glow2" cx="70%" cy="60%" r="35%">
      <stop offset="0%" stop-color="#a855f7" stop-opacity="0.25"/>
      <stop offset="100%" stop-color="#a855f7" stop-opacity="0"/>
    </radialGradient>
  </defs>
  <!-- Background -->
  <rect width="1200" height="630" fill="url(#bg)"/>
  <rect width="1200" height="630" fill="url(#glow1)"/>
  <rect width="1200" height="630" fill="url(#glow2)"/>
  
  <!-- Grid pattern -->
  <g opacity="0.05" stroke="white" stroke-width="0.5">
    <line x1="0" y1="100" x2="1200" y2="100"/>
    <line x1="0" y1="200" x2="1200" y2="200"/>
    <line x1="0" y1="300" x2="1200" y2="300"/>
    <line x1="0" y1="400" x2="1200" y2="400"/>
    <line x1="0" y1="500" x2="1200" y2="500"/>
    <line x1="200" y1="0" x2="200" y2="630"/>
    <line x1="400" y1="0" x2="400" y2="630"/>
    <line x1="600" y1="0" x2="600" y2="630"/>
    <line x1="800" y1="0" x2="800" y2="630"/>
    <line x1="1000" y1="0" x2="1000" y2="630"/>
  </g>
  
  <!-- Logo icon -->
  <rect x="520" y="140" width="56" height="56" rx="14" fill="url(#accent)"/>
  <text x="548" y="177" text-anchor="middle" font-family="Inter,system-ui,sans-serif" font-weight="800" font-size="32" fill="white">C</text>
  
  <!-- Brand name -->
  <text x="590" y="177" font-family="Inter,system-ui,sans-serif" font-weight="800" font-size="36" fill="white">OrbixDigital</text>
  
  <!-- Tagline -->
  <text x="600" y="280" text-anchor="middle" font-family="Inter,system-ui,sans-serif" font-weight="700" font-size="48" fill="white">Run Your Marketing Agency</text>
  <text x="600" y="345" text-anchor="middle" font-family="Inter,system-ui,sans-serif" font-weight="700" font-size="48" fill="url(#accent)">Like a Machine</text>
  
  <!-- Subtitle -->
  <text x="600" y="410" text-anchor="middle" font-family="Inter,system-ui,sans-serif" font-weight="400" font-size="22" fill="#a1a1aa">Manage leads, clients, content, and campaigns from a single dashboard.</text>
  
  <!-- Stats bar -->
  <rect x="150" y="470" width="900" height="70" rx="12" fill="white" fill-opacity="0.05" stroke="white" stroke-opacity="0.1"/>
  <text x="310" y="512" text-anchor="middle" font-family="Inter,system-ui,sans-serif" font-weight="700" font-size="20" fill="white">500+ Businesses</text>
  <text x="600" y="512" text-anchor="middle" font-family="Inter,system-ui,sans-serif" font-weight="700" font-size="20" fill="white">98% Satisfaction</text>
  <text x="890" y="512" text-anchor="middle" font-family="Inter,system-ui,sans-serif" font-weight="700" font-size="20" fill="white">$2M+ Revenue</text>
  
  <!-- Dividers in stats -->
  <line x1="450" y1="485" x2="450" y2="540" stroke="white" stroke-opacity="0.15" stroke-width="1"/>
  <line x1="750" y1="485" x2="750" y2="540" stroke="white" stroke-opacity="0.15" stroke-width="1"/>
  
  <!-- Bottom accent line -->
  <rect x="0" y="620" width="1200" height="10" fill="url(#accent)"/>
</svg>
