<svg xmlns="http://www.w3.org/2000/svg" viewBox="0 0 80 80" fill="none">
  <circle cx="40" cy="40" r="40" fill="url(#a1)"/>
  <circle cx="40" cy="30" r="12" fill="#fff" opacity="0.9"/>
  <path d="M18 65 Q18 48 40 48 Q62 48 62 65" fill="#fff" opacity="0.9"/>
  <circle cx="40" cy="30" r="10" fill="url(#a1b)"/>
  <ellipse cx="40" cy="29" rx="6" ry="7" fill="#D4A574"/>
  <path d="M34 24 Q34 18 40 18 Q46 18 46 24 L46 26 Q46 22 40 21 Q34 22 34 26Z" fill="#4A3728"/>
  <circle cx="37" cy="28" r="1" fill="#333"/>
  <circle cx="43" cy="28" r="1" fill="#333"/>
  <path d="M38 32 Q40 34 42 32" stroke="#333" stroke-width="0.8" fill="none" stroke-linecap="round"/>
  <defs>
    <linearGradient id="a1" x1="0" y1="0" x2="80" y2="80"><stop stop-color="#3B82F6"/><stop offset="1" stop-color="#06B6D4"/></linearGradient>
    <linearGradient id="a1b" x1="30" y1="20" x2="50" y2="40"><stop stop-color="#F5D5B8"/><stop offset="1" stop-color="#D4A574"/></linearGradient>
  </defs>
</svg>
