<svg width="800" height="450" xmlns="http://www.w3.org/2000/svg">
 <defs>
  <linearGradient id="grad" x1="0%" y1="0%" x2="100%" y2="100%">
   <stop offset="0%" style="stop-color:#431407;stop-opacity:1" />
   <stop offset="100%" style="stop-color:#1e293b;stop-opacity:1" />
  </linearGradient>
  <linearGradient id="accent" x1="0%" y1="0%" x2="100%" y2="0%">
   <stop offset="0%" style="stop-color:#f97316;stop-opacity:1" />
   <stop offset="100%" style="stop-color:#fdba74;stop-opacity:1" />
  </linearGradient>
 </defs>
 <rect width="100%" height="100%" fill="url(#grad)" />
 
 <!-- Shapes -->
 <rect x="300" y="150" width="100" height="100" fill="none" stroke="url(#accent)" stroke-width="4" transform="rotate(45 350 200)"/>
 <circle cx="450" cy="200" r="60" fill="rgba(249, 115, 22, 0.2)"/>
 <path d="M 350 300 L 450 300 L 400 220 Z" fill="none" stroke="white" stroke-width="2"/>
 
 <!-- Sparkles -->
 <path d="M 600 100 L 610 120 L 630 130 L 610 140 L 600 160 L 590 140 L 570 130 L 590 120 Z" fill="white"/>
 <path d="M 200 300 L 205 310 L 215 315 L 205 320 L 200 330 L 195 320 L 185 315 L 195 310 Z" fill="white"/>

 <text x="50%" y="90%" font-family="sans-serif" font-size="14" fill="rgba(255,255,255,0.3)" text-anchor="middle" letter-spacing="2">BRAND STRATEGY</text>
</svg>
