<svg width="800" height="450" xmlns="http://www.w3.org/2000/svg">
 <defs>
  <linearGradient id="grad" x1="0%" y1="0%" x2="100%" y2="100%">
   <stop offset="0%" style="stop-color:#4c0519;stop-opacity:1" />
   <stop offset="100%" style="stop-color:#1e293b;stop-opacity:1" />
  </linearGradient>
  <linearGradient id="accent" x1="0%" y1="0%" x2="100%" y2="0%">
   <stop offset="0%" style="stop-color:#e11d48;stop-opacity:1" />
   <stop offset="100%" style="stop-color:#fb7185;stop-opacity:1" />
  </linearGradient>
 </defs>
 <rect width="100%" height="100%" fill="url(#grad)" />
 
 <!-- Megaphone -->
 <path d="M 250 200 L 400 150 L 400 300 L 250 250 Z" fill="url(#accent)"/>
 <rect x="230" y="210" width="20" height="30" fill="#881337"/>
 <path d="M 400 180 Q 450 180 450 250 Q 450 320 400 270" fill="none"/>
 
 <!-- Sound Waves -->
 <path d="M 460 180 A 100 100 0 0 1 460 270" fill="none" stroke="white" stroke-width="4" stroke-linecap="round"/>
 <path d="M 500 150 A 150 150 0 0 1 500 300" fill="none" stroke="white" stroke-width="4" stroke-linecap="round" opacity="0.6"/>
 <path d="M 540 120 A 200 200 0 0 1 540 330" fill="none" stroke="white" stroke-width="4" stroke-linecap="round" opacity="0.3"/>

 <text x="50%" y="90%" font-family="sans-serif" font-size="14" fill="rgba(255,255,255,0.3)" text-anchor="middle" letter-spacing="2">INFLUENCER MARKETING</text>
</svg>
