<svg width="800" height="450" xmlns="http://www.w3.org/2000/svg">
 <defs>
  <linearGradient id="grad" x1="0%" y1="0%" x2="100%" y2="100%">
   <stop offset="0%" style="stop-color:#450a0a;stop-opacity:1" />
   <stop offset="100%" style="stop-color:#1e293b;stop-opacity:1" />
  </linearGradient>
  <linearGradient id="accent" x1="0%" y1="0%" x2="100%" y2="0%">
   <stop offset="0%" style="stop-color:#ef4444;stop-opacity:1" />
   <stop offset="100%" style="stop-color:#f87171;stop-opacity:1" />
  </linearGradient>
 </defs>
 <rect width="100%" height="100%" fill="url(#grad)" />
 
 <!-- Play Button -->
 <circle cx="400" cy="225" r="80" fill="none" stroke="rgba(255,255,255,0.1)" stroke-width="4"/>
 <path d="M 380 180 L 450 225 L 380 270 Z" fill="url(#accent)"/>
 
 <!-- Film Strip -->
 <rect x="0" y="50" width="800" height="60" fill="rgba(0,0,0,0.3)"/>
 <rect x="0" y="340" width="800" height="60" fill="rgba(0,0,0,0.3)"/>
 
 <rect x="50" y="60" width="40" height="40" fill="white" opacity="0.1"/>
 <rect x="150" y="60" width="40" height="40" fill="white" opacity="0.1"/>
 <rect x="250" y="60" width="40" height="40" fill="white" opacity="0.1"/>
 <rect x="350" y="60" width="40" height="40" fill="white" opacity="0.1"/>
 <rect x="450" y="60" width="40" height="40" fill="white" opacity="0.1"/>
 <rect x="550" y="60" width="40" height="40" fill="white" opacity="0.1"/>
 <rect x="650" y="60" width="40" height="40" fill="white" opacity="0.1"/>
 <rect x="750" y="60" width="40" height="40" fill="white" opacity="0.1"/>

 <text x="50%" y="90%" font-family="sans-serif" font-size="14" fill="rgba(255,255,255,0.3)" text-anchor="middle" letter-spacing="2">VIDEO PRODUCTION</text>
</svg>
