<svg xmlns="http://www.w3.org/2000/svg" viewBox="0 0 800 450" fill="none">
  <defs>
    <linearGradient id="bg" x1="0" y1="0" x2="800" y2="450" gradientUnits="userSpaceOnUse">
      <stop offset="0%" stop-color="#1c1207"/>
      <stop offset="100%" stop-color="#1e293b"/>
    </linearGradient>
    <linearGradient id="acc" x1="0" y1="0" x2="1" y2="1">
      <stop offset="0%" stop-color="#f59e0b"/>
      <stop offset="100%" stop-color="#f97316"/>
    </linearGradient>
  </defs>
  <rect width="800" height="450" fill="url(#bg)"/>
  <circle cx="400" cy="225" r="200" fill="#f59e0b" opacity="0.03"/>

  <!-- CRM comparison boxes -->
  <rect x="160" y="100" width="150" height="200" rx="14" fill="#1c1c36" opacity="0.8" stroke="#f59e0b" stroke-width="2" stroke-opacity="0.3"/>
  <rect x="175" y="120" width="120" height="10" rx="3" fill="#f59e0b" opacity="0.3"/>
  <rect x="175" y="140" width="80" height="6" rx="3" fill="#475569" opacity="0.5"/>
  <rect x="175" y="155" width="100" height="6" rx="3" fill="#475569" opacity="0.5"/>
  <rect x="175" y="170" width="60" height="6" rx="3" fill="#475569" opacity="0.5"/>
  <circle cx="195" cy="210" r="4" fill="#ef4444"/>
  <text x="207" y="214" font-family="Arial,sans-serif" font-size="9" fill="#6b7280">Limited</text>
  <circle cx="195" cy="230" r="4" fill="#f59e0b"/>
  <text x="207" y="234" font-family="Arial,sans-serif" font-size="9" fill="#6b7280">Partial</text>
  <circle cx="195" cy="250" r="4" fill="#ef4444"/>
  <text x="207" y="254" font-family="Arial,sans-serif" font-size="9" fill="#6b7280">Missing</text>
  <text x="235" y="286" font-family="Arial,sans-serif" font-size="10" fill="#6b7280" text-anchor="middle">CRM A</text>

  <rect x="325" y="80" width="150" height="220" rx="14" fill="#1c1c36" opacity="0.8" stroke="#10b981" stroke-width="2.5"/>
  <rect x="340" y="100" width="120" height="10" rx="3" fill="#10b981" opacity="0.4"/>
  <rect x="340" y="120" width="80" height="6" rx="3" fill="#475569" opacity="0.5"/>
  <rect x="340" y="135" width="100" height="6" rx="3" fill="#475569" opacity="0.5"/>
  <rect x="340" y="150" width="60" height="6" rx="3" fill="#475569" opacity="0.5"/>
  <circle cx="360" cy="190" r="4" fill="#10b981"/>
  <text x="372" y="194" font-family="Arial,sans-serif" font-size="9" fill="#6b7280">Full</text>
  <circle cx="360" cy="210" r="4" fill="#10b981"/>
  <text x="372" y="214" font-family="Arial,sans-serif" font-size="9" fill="#6b7280">Full</text>
  <circle cx="360" cy="230" r="4" fill="#10b981"/>
  <text x="372" y="234" font-family="Arial,sans-serif" font-size="9" fill="#6b7280">Full</text>
  <text x="342" y="260" font-family="Arial,sans-serif" font-size="10" fill="#6b7280">★ Best</text>
  <text x="400" y="286" font-family="Arial,sans-serif" font-size="10" fill="#10b981" text-anchor="middle">AgencyOS</text>

  <rect x="490" y="100" width="150" height="200" rx="14" fill="#1c1c36" opacity="0.8" stroke="#f59e0b" stroke-width="2" stroke-opacity="0.3"/>
  <rect x="505" y="120" width="120" height="10" rx="3" fill="#f59e0b" opacity="0.3"/>
  <rect x="505" y="140" width="80" height="6" rx="3" fill="#475569" opacity="0.5"/>
  <rect x="505" y="155" width="100" height="6" rx="3" fill="#475569" opacity="0.5"/>
  <rect x="505" y="170" width="60" height="6" rx="3" fill="#475569" opacity="0.5"/>
  <circle cx="525" cy="210" r="4" fill="#f59e0b"/>
  <text x="537" y="214" font-family="Arial,sans-serif" font-size="9" fill="#6b7280">Partial</text>
  <circle cx="525" cy="230" r="4" fill="#10b981"/>
  <text x="537" y="234" font-family="Arial,sans-serif" font-size="9" fill="#6b7280">Full</text>
  <circle cx="525" cy="250" r="4" fill="#ef4444"/>
  <text x="537" y="254" font-family="Arial,sans-serif" font-size="9" fill="#6b7280">Missing</text>
  <text x="565" y="286" font-family="Arial,sans-serif" font-size="10" fill="#6b7280" text-anchor="middle">CRM C</text>

  <!-- VS labels -->
  <text x="268" y="200" font-family="Arial,sans-serif" font-size="16" font-weight="bold" fill="#475569">vs</text>
  <text x="448" y="200" font-family="Arial,sans-serif" font-size="16" font-weight="bold" fill="#475569">vs</text>

  <text x="400" y="425" font-family="sans-serif" font-size="13" fill="rgba(255,255,255,0.2)" text-anchor="middle" letter-spacing="2">AGENCY CRM COMPARISON</text>
</svg>
