<svg xmlns="http://www.w3.org/2000/svg" viewBox="0 0 800 450" fill="none">
  <defs>
    <linearGradient id="bg" x1="0" y1="0" x2="800" y2="450" gradientUnits="userSpaceOnUse">
      <stop offset="0%" stop-color="#1a0533"/>
      <stop offset="100%" stop-color="#1e293b"/>
    </linearGradient>
    <linearGradient id="acc" x1="0" y1="0" x2="1" y2="1">
      <stop offset="0%" stop-color="#8b5cf6"/>
      <stop offset="100%" stop-color="#a855f7"/>
    </linearGradient>
  </defs>
  <rect width="800" height="450" fill="url(#bg)"/>
  <circle cx="400" cy="200" r="250" fill="#8b5cf6" opacity="0.03"/>

  <!-- AI Brain / Search mashup -->
  <circle cx="400" cy="190" r="90" fill="none" stroke="url(#acc)" stroke-width="3" opacity="0.4"/>
  <circle cx="400" cy="190" r="60" fill="none" stroke="url(#acc)" stroke-width="2" opacity="0.3"/>
  <!-- Neural nodes -->
  <circle cx="370" cy="170" r="8" fill="#8b5cf6" opacity="0.6"/>
  <circle cx="430" cy="170" r="8" fill="#a855f7" opacity="0.6"/>
  <circle cx="400" cy="210" r="8" fill="#c084fc" opacity="0.6"/>
  <circle cx="360" cy="210" r="6" fill="#8b5cf6" opacity="0.4"/>
  <circle cx="440" cy="210" r="6" fill="#a855f7" opacity="0.4"/>
  <!-- Connections -->
  <line x1="370" y1="170" x2="430" y2="170" stroke="#c084fc" stroke-width="1.5" opacity="0.3"/>
  <line x1="370" y1="170" x2="400" y2="210" stroke="#c084fc" stroke-width="1.5" opacity="0.3"/>
  <line x1="430" y1="170" x2="400" y2="210" stroke="#c084fc" stroke-width="1.5" opacity="0.3"/>

  <!-- Search icon -->
  <circle cx="400" cy="190" r="25" fill="none" stroke="#e9d5ff" stroke-width="3" opacity="0.5"/>
  <line x1="418" y1="208" x2="435" y2="225" stroke="#e9d5ff" stroke-width="4" stroke-linecap="round" opacity="0.5"/>

  <!-- Trend arrows -->
  <polyline points="250,330 300,310 350,320 400,290 450,280 500,260 550,240" stroke="#8b5cf6" stroke-width="2.5" fill="none" stroke-linecap="round" opacity="0.5"/>
  <text x="560" y="245" font-family="Arial" font-size="14" fill="#10b981">↑ AI</text>

  <!-- Tags -->
  <rect x="270" y="360" width="80" height="26" rx="13" fill="#8b5cf6" opacity="0.15"/>
  <text x="290" y="377" font-family="Arial,sans-serif" font-size="10" fill="#c084fc">SGE</text>
  <rect x="360" y="360" width="80" height="26" rx="13" fill="#a855f7" opacity="0.15"/>
  <text x="378" y="377" font-family="Arial,sans-serif" font-size="10" fill="#c084fc">AI SEO</text>
  <rect x="450" y="360" width="80" height="26" rx="13" fill="#7c3aed" opacity="0.15"/>
  <text x="460" y="377" font-family="Arial,sans-serif" font-size="10" fill="#c084fc">2026</text>

  <text x="400" y="425" font-family="sans-serif" font-size="13" fill="rgba(255,255,255,0.2)" text-anchor="middle" letter-spacing="2">SEO TRENDS 2026</text>
</svg>
