<svg xmlns="http://www.w3.org/2000/svg" viewBox="0 0 800 450" fill="none">
  <defs>
    <linearGradient id="bg" x1="0" y1="0" x2="800" y2="450" gradientUnits="userSpaceOnUse">
      <stop offset="0%" stop-color="#1a0a2e"/>
      <stop offset="100%" stop-color="#1e293b"/>
    </linearGradient>
    <linearGradient id="acc" x1="0" y1="0" x2="1" y2="1">
      <stop offset="0%" stop-color="#ec4899"/>
      <stop offset="100%" stop-color="#f43f5e"/>
    </linearGradient>
  </defs>
  <rect width="800" height="450" fill="url(#bg)"/>
  <circle cx="400" cy="200" r="220" fill="#ec4899" opacity="0.03"/>

  <!-- Social media icons mock -->
  <circle cx="260" cy="180" r="45" fill="#1c1c36" stroke="#ec4899" stroke-width="2" stroke-opacity="0.3"/>
  <text x="248" y="186" font-family="Arial" font-size="22" fill="#ec4899" opacity="0.7">📱</text>

  <circle cx="400" cy="140" r="50" fill="#1c1c36" stroke="#f43f5e" stroke-width="2.5" stroke-opacity="0.4"/>
  <text x="386" y="148" font-family="Arial" font-size="26" fill="#f43f5e" opacity="0.7">📊</text>

  <circle cx="540" cy="180" r="45" fill="#1c1c36" stroke="#ec4899" stroke-width="2" stroke-opacity="0.3"/>
  <text x="528" y="186" font-family="Arial" font-size="22" fill="#ec4899" opacity="0.7">💬</text>

  <!-- Connecting lines -->
  <line x1="300" y1="170" x2="355" y2="150" stroke="#ec4899" stroke-width="1.5" stroke-dasharray="4 3" opacity="0.3"/>
  <line x1="445" y1="150" x2="500" y2="170" stroke="#ec4899" stroke-width="1.5" stroke-dasharray="4 3" opacity="0.3"/>

  <!-- ROI Dashboard -->
  <rect x="250" y="260" width="300" height="120" rx="14" fill="#1c1c36" opacity="0.8"/>
  <text x="280" y="288" font-family="Arial,sans-serif" font-size="12" fill="#6b7280">Social Media ROI</text>
  <text x="280" y="318" font-family="Arial,sans-serif" font-size="28" font-weight="bold" fill="#ffffff">342%</text>
  <rect x="280" y="335" width="50" height="16" rx="8" fill="#10b981" opacity="0.15"/>
  <text x="290" y="347" font-family="Arial,sans-serif" font-size="10" font-weight="bold" fill="#10b981">+89%</text>

  <!-- Mini bar chart -->
  <rect x="430" y="340" width="16" height="28" rx="3" fill="#ec4899" opacity="0.4"/>
  <rect x="454" y="325" width="16" height="43" rx="3" fill="#ec4899" opacity="0.5"/>
  <rect x="478" y="310" width="16" height="58" rx="3" fill="#ec4899" opacity="0.6"/>
  <rect x="502" y="295" width="16" height="73" rx="3" fill="#f43f5e" opacity="0.8"/>

  <text x="400" y="425" font-family="sans-serif" font-size="13" fill="rgba(255,255,255,0.2)" text-anchor="middle" letter-spacing="2">SOCIAL MEDIA ROI</text>
</svg>
